<svg width="1200" height="360" viewBox="0 0 1200 360" xmlns="http://www.w3.org/2000/svg">
    <defs>
        <linearGradient id="bgLight" x1="0" y1="0" x2="1" y2="1">
            <stop offset="0%" stop-color="#fcfcff" />
            <stop offset="55%" stop-color="#f3f6ff" />
            <stop offset="100%" stop-color="#eaf1ff" />
        </linearGradient>
        <radialGradient id="bgGlowLight" cx="38%" cy="32%" r="72%">
            <stop offset="0%" stop-color="#93c5fd" stop-opacity="0.18" />
            <stop offset="50%" stop-color="#c4b5fd" stop-opacity="0.1" />
            <stop offset="100%" stop-color="#ffffff" stop-opacity="0" />
        </radialGradient>
        <linearGradient id="panelLight" x1="0" y1="0" x2="0" y2="1">
            <stop offset="0%" stop-color="#ffffff" />
            <stop offset="100%" stop-color="#f8fbff" />
        </linearGradient>
        <linearGradient id="edgeLight" x1="0" y1="0" x2="1" y2="1">
            <stop offset="0%" stop-color="#60a5fa" />
            <stop offset="50%" stop-color="#7c3aed" />
            <stop offset="100%" stop-color="#f97316" />
        </linearGradient>
    </defs>

    <rect width="1200" height="360" fill="url(#bgLight)" />
    <rect width="1200" height="360" fill="url(#bgGlowLight)" />

    <g opacity="0.16" stroke="#94a3b8" stroke-width="1">
        <path d="M0 60H1200M0 120H1200M0 180H1200M0 240H1200M0 300H1200" />
        <path
            d="M80 0V360M200 0V360M320 0V360M440 0V360M560 0V360M680 0V360M800 0V360M920 0V360M1040 0V360M1160 0V360" />
    </g>

    <g transform="translate(70 30)">
        <rect x="0" y="0" width="1060" height="300" rx="20" fill="url(#panelLight)"
            stroke="url(#edgeLight)" stroke-width="1.5" />
        <rect x="0.5" y="0.5" width="1059" height="299" rx="19.5" fill="none" stroke="#0f172a"
            stroke-opacity="0.05" />

        <rect x="18" y="16" width="1024" height="22" rx="11" fill="#edf2ff" stroke="#dbe4ff"
            stroke-width="1" />
        <circle cx="38" cy="27" r="5" fill="#fb7185" />
        <circle cx="56" cy="27" r="5" fill="#fbbf24" />
        <circle cx="74" cy="27" r="5" fill="#34d399" />
        <text x="100" y="31" font-size="11"
            font-family="ui-monospace, SFMono-Regular, Consolas, monospace" fill="#475569">crystalng2005
            / README.md</text>
        <text x="1018" y="31" text-anchor="end" font-size="11"
            font-family="ui-monospace, SFMono-Regular, Consolas, monospace" fill="#64748b">profile
            terminal</text>

        <text x="32" y="62" font-size="12"
            font-family="ui-monospace, SFMono-Regular, Consolas, monospace" fill="#2563eb"
            letter-spacing="3">WARWICK CS / UWCS</text>
        <text x="32" y="112" font-size="38" font-weight="800"
            font-family="Inter, Segoe UI, Arial, sans-serif" fill="#0f172a">Crystal Ng</text>
        <text x="32" y="140" font-size="15" font-family="Inter, Segoe UI, Arial, sans-serif"
            fill="#475569">2nd year CS student, UWCS Secretary, and builder focused on Python
            parallelization research.</text>

        <g transform="translate(34 168)"
            font-family="ui-monospace, SFMono-Regular, Consolas, monospace">
            <rect x="0" y="0" width="160" height="26" rx="13" fill="#ffffff" stroke="#8b5cf6"
                stroke-opacity="0.4" />
            <text x="16" y="17" font-size="12" fill="#5b21b6">Python</text>
            <rect x="174" y="0" width="116" height="26" rx="13" fill="#ffffff" stroke="#22d3ee"
                stroke-opacity="0.35" />
            <text x="192" y="17" font-size="12" fill="#0369a1">Java</text>
            <rect x="304" y="0" width="116" height="26" rx="13" fill="#ffffff" stroke="#f97316"
                stroke-opacity="0.35" />
            <text x="322" y="17" font-size="12" fill="#c2410c">C++</text>
            <rect x="434" y="0" width="126" height="26" rx="13" fill="#ffffff" stroke="#94a3b8"
                stroke-opacity="0.35" />
            <text x="452" y="17" font-size="12" fill="#334155">Haskell</text>
        </g>

        <g transform="translate(34 208)"
            font-family="ui-monospace, SFMono-Regular, Consolas, monospace">
            <rect x="0" y="0" width="78" height="24" rx="12" fill="#ffffff" stroke="#8b5cf6"
                stroke-opacity="0.32" />
            <text x="14" y="16" font-size="11" fill="#4338ca">Git</text>
            <rect x="90" y="0" width="92" height="24" rx="12" fill="#ffffff" stroke="#22d3ee"
                stroke-opacity="0.32" />
            <text x="108" y="16" font-size="11" fill="#0369a1">Linux</text>
            <rect x="194" y="0" width="92" height="24" rx="12" fill="#ffffff" stroke="#f97316"
                stroke-opacity="0.32" />
            <text x="212" y="16" font-size="11" fill="#c2410c">LaTeX</text>
            <rect x="298" y="0" width="124" height="24" rx="12" fill="#ffffff" stroke="#94a3b8"
                stroke-opacity="0.32" />
            <text x="316" y="16" font-size="11" fill="#334155">Parallelism</text>
        </g>

    </g>
</svg>